<?xml version="1.0" encoding="UTF-8" standalone="no"?>
<!DOCTYPE svg PUBLIC "-//W3C//DTD SVG 1.1//EN"
 "http://www.w3.org/Graphics/SVG/1.1/DTD/svg11.dtd">
<!-- Generated by graphviz version 10.0.1 (0)
 -->
<!-- Title: my_graph Pages: 1 -->
<svg width="1606pt" height="144pt"
 viewBox="0.00 0.00 1606.21 144.00" xmlns="http://www.w3.org/2000/svg" xmlns:xlink="http://www.w3.org/1999/xlink">
<g id="graph0" class="graph" transform="scale(1 1) rotate(0) translate(4 140)">
<title>my_graph</title>
<polygon fill="white" stroke="none" points="-4,4 -4,-140 1602.21,-140 1602.21,4 -4,4"/>
<!-- START -->
<g id="node1" class="node">
<title>START</title>
<ellipse fill="none" stroke="black" cx="44.37" cy="-72" rx="44.37" ry="18"/>
<text text-anchor="middle" x="44.37" y="-67.33" font-family="Times,serif" font-size="14.00">START</text>
</g>
<!-- SELECT -->
<g id="node2" class="node">
<title>SELECT</title>
<ellipse fill="none" stroke="black" cx="177.52" cy="-72" rx="52.79" ry="18"/>
<text text-anchor="middle" x="177.52" y="-67.33" font-family="Times,serif" font-size="14.00">SELECT</text>
</g>
<!-- START&#45;&gt;SELECT -->
<g id="edge1" class="edge">
<title>START&#45;&gt;SELECT</title>
<path fill="none" stroke="black" d="M89.04,-72C96.74,-72 104.89,-72 113.01,-72"/>
<polygon fill="black" stroke="black" points="112.88,-75.5 122.88,-72 112.88,-68.5 112.88,-75.5"/>
</g>
<!-- SELECT_TARGET -->
<g id="node3" class="node">
<title>SELECT_TARGET</title>
<ellipse fill="none" stroke="black" cx="456.46" cy="-72" rx="30.69" ry="18"/>
<text text-anchor="middle" x="456.46" y="-67.33" font-family="Times,serif" font-size="14.00">cols</text>
</g>
<!-- SELECT&#45;&gt;SELECT_TARGET -->
<g id="edge2" class="edge">
<title>SELECT&#45;&gt;SELECT_TARGET</title>
<path fill="none" stroke="black" d="M213.84,-85.5C229.64,-90.85 248.65,-96.35 266.31,-99 320.57,-107.16 335.94,-109.63 389.77,-99 400.7,-96.84 412.09,-92.85 422.26,-88.58"/>
<polygon fill="black" stroke="black" points="423.65,-91.79 431.36,-84.53 420.8,-85.4 423.65,-91.79"/>
</g>
<!-- DISTINCT_SPECIFIER -->
<g id="node4" class="node">
<title>DISTINCT_SPECIFIER</title>
<ellipse fill="none" stroke="black" cx="328.04" cy="-72" rx="61.73" ry="18"/>
<text text-anchor="middle" x="328.04" y="-67.33" font-family="Times,serif" font-size="14.00">DISTINCT</text>
</g>
<!-- SELECT&#45;&gt;DISTINCT_SPECIFIER -->
<g id="edge3" class="edge">
<title>SELECT&#45;&gt;DISTINCT_SPECIFIER</title>
<path fill="none" stroke="black" d="M230.47,-72C238.26,-72 246.41,-72 254.53,-72"/>
<polygon fill="black" stroke="black" points="254.44,-75.5 264.44,-72 254.44,-68.5 254.44,-75.5"/>
</g>
<!-- ALL_SPECIFIER -->
<g id="node5" class="node">
<title>ALL_SPECIFIER</title>
<ellipse fill="none" stroke="black" cx="328.04" cy="-18" rx="30.69" ry="18"/>
<text text-anchor="middle" x="328.04" y="-13.32" font-family="Times,serif" font-size="14.00">ALL</text>
</g>
<!-- SELECT&#45;&gt;ALL_SPECIFIER -->
<g id="edge5" class="edge">
<title>SELECT&#45;&gt;ALL_SPECIFIER</title>
<path fill="none" stroke="black" d="M214.48,-58.93C237.49,-50.56 267.27,-39.73 290.42,-31.31"/>
<polygon fill="black" stroke="black" points="291.57,-34.62 299.77,-27.92 289.18,-28.04 291.57,-34.62"/>
</g>
<!-- FROM -->
<g id="node6" class="node">
<title>FROM</title>
<ellipse fill="none" stroke="black" cx="566.47" cy="-72" rx="43.32" ry="18"/>
<text text-anchor="middle" x="566.47" y="-67.33" font-family="Times,serif" font-size="14.00">FROM</text>
</g>
<!-- SELECT_TARGET&#45;&gt;FROM -->
<g id="edge7" class="edge">
<title>SELECT_TARGET&#45;&gt;FROM</title>
<path fill="none" stroke="black" d="M487.55,-72C495.1,-72 503.43,-72 511.76,-72"/>
<polygon fill="black" stroke="black" points="511.52,-75.5 521.52,-72 511.52,-68.5 511.52,-75.5"/>
</g>
<!-- DISTINCT_SPECIFIER&#45;&gt;SELECT_TARGET -->
<g id="edge4" class="edge">
<title>DISTINCT_SPECIFIER&#45;&gt;SELECT_TARGET</title>
<path fill="none" stroke="black" d="M390.03,-72C398.25,-72 406.51,-72 414.28,-72"/>
<polygon fill="black" stroke="black" points="414.08,-75.5 424.08,-72 414.08,-68.5 414.08,-75.5"/>
</g>
<!-- ALL_SPECIFIER&#45;&gt;SELECT_TARGET -->
<g id="edge6" class="edge">
<title>ALL_SPECIFIER&#45;&gt;SELECT_TARGET</title>
<path fill="none" stroke="black" d="M353.42,-28.41C372.57,-36.59 399.48,-48.09 420.86,-57.22"/>
<polygon fill="black" stroke="black" points="419.2,-60.32 429.77,-61.03 421.95,-53.88 419.2,-60.32"/>
</g>
<!-- FROM_TARGET -->
<g id="node7" class="node">
<title>FROM_TARGET</title>
<ellipse fill="none" stroke="black" cx="690.15" cy="-72" rx="44.37" ry="18"/>
<text text-anchor="middle" x="690.15" y="-67.33" font-family="Times,serif" font-size="14.00">source</text>
</g>
<!-- FROM&#45;&gt;FROM_TARGET -->
<g id="edge8" class="edge">
<title>FROM&#45;&gt;FROM_TARGET</title>
<path fill="none" stroke="black" d="M610.03,-72C617.85,-72 626.12,-72 634.25,-72"/>
<polygon fill="black" stroke="black" points="634.07,-75.5 644.07,-72 634.07,-68.5 634.07,-75.5"/>
</g>
<!-- WHERE -->
<g id="node8" class="node">
<title>WHERE</title>
<ellipse fill="none" stroke="black" cx="822.25" cy="-118" rx="51.73" ry="18"/>
<text text-anchor="middle" x="822.25" y="-113.33" font-family="Times,serif" font-size="14.00">WHERE</text>
</g>
<!-- FROM_TARGET&#45;&gt;WHERE -->
<g id="edge11" class="edge">
<title>FROM_TARGET&#45;&gt;WHERE</title>
<path fill="none" stroke="black" d="M724.32,-83.73C739.51,-89.1 757.79,-95.56 774.35,-101.42"/>
<polygon fill="black" stroke="black" points="772.92,-104.62 783.52,-104.66 775.26,-98.02 772.92,-104.62"/>
</g>
<!-- GROUPBY -->
<g id="node10" class="node">
<title>GROUPBY</title>
<ellipse fill="none" stroke="black" cx="1081.2" cy="-76" rx="67.52" ry="18"/>
<text text-anchor="middle" x="1081.2" y="-71.33" font-family="Times,serif" font-size="14.00">GROUP_BY</text>
</g>
<!-- FROM_TARGET&#45;&gt;GROUPBY -->
<g id="edge10" class="edge">
<title>FROM_TARGET&#45;&gt;GROUPBY</title>
<path fill="none" stroke="black" d="M734.65,-72.45C799.32,-73.11 921.82,-74.37 1002.23,-75.2"/>
<polygon fill="black" stroke="black" points="1001.74,-78.69 1011.77,-75.3 1001.81,-71.69 1001.74,-78.69"/>
</g>
<!-- END -->
<g id="node14" class="node">
<title>END</title>
<ellipse fill="none" stroke="black" cx="1563.31" cy="-76" rx="34.9" ry="18"/>
<text text-anchor="middle" x="1563.31" y="-71.33" font-family="Times,serif" font-size="14.00">END</text>
</g>
<!-- FROM_TARGET&#45;&gt;END -->
<g id="edge9" class="edge">
<title>FROM_TARGET&#45;&gt;END</title>
<path fill="none" stroke="black" d="M727.51,-62.05C776.16,-49.63 865.31,-30 942.83,-30 942.83,-30 942.83,-30 1336.41,-30 1406.26,-30 1424.65,-32.06 1492.41,-49 1503.47,-51.76 1515.14,-55.79 1525.71,-59.9"/>
<polygon fill="black" stroke="black" points="1524.27,-63.1 1534.85,-63.6 1526.89,-56.61 1524.27,-63.1"/>
</g>
<!-- WHERE_TARGET -->
<g id="node9" class="node">
<title>WHERE_TARGET</title>
<ellipse fill="none" stroke="black" cx="943.83" cy="-118" rx="33.85" ry="18"/>
<text text-anchor="middle" x="943.83" y="-113.33" font-family="Times,serif" font-size="14.00">expr</text>
</g>
<!-- WHERE&#45;&gt;WHERE_TARGET -->
<g id="edge12" class="edge">
<title>WHERE&#45;&gt;WHERE_TARGET</title>
<path fill="none" stroke="black" d="M874.31,-118C882.24,-118 890.37,-118 898.14,-118"/>
<polygon fill="black" stroke="black" points="898.07,-121.5 908.07,-118 898.07,-114.5 898.07,-121.5"/>
</g>
<!-- WHERE_TARGET&#45;&gt;GROUPBY -->
<g id="edge13" class="edge">
<title>WHERE_TARGET&#45;&gt;GROUPBY</title>
<path fill="none" stroke="black" d="M973.54,-109.09C988.52,-104.45 1007.35,-98.6 1025.01,-93.12"/>
<polygon fill="black" stroke="black" points="1025.85,-96.53 1034.37,-90.22 1023.78,-89.84 1025.85,-96.53"/>
</g>
<!-- WHERE_TARGET&#45;&gt;END -->
<g id="edge14" class="edge">
<title>WHERE_TARGET&#45;&gt;END</title>
<path fill="none" stroke="black" d="M978.03,-118.81C1028.91,-119.98 1129.22,-122 1214.41,-122 1214.41,-122 1214.41,-122 1336.41,-122 1406.26,-122 1424.65,-119.94 1492.41,-103 1503.47,-100.24 1515.14,-96.21 1525.71,-92.1"/>
<polygon fill="black" stroke="black" points="1526.89,-95.39 1534.85,-88.4 1524.27,-88.9 1526.89,-95.39"/>
</g>
<!-- GROUPBY_TARGET -->
<g id="node11" class="node">
<title>GROUPBY_TARGET</title>
<ellipse fill="none" stroke="black" cx="1215.41" cy="-76" rx="30.69" ry="18"/>
<text text-anchor="middle" x="1215.41" y="-71.33" font-family="Times,serif" font-size="14.00">cols</text>
</g>
<!-- GROUPBY&#45;&gt;GROUPBY_TARGET -->
<g id="edge15" class="edge">
<title>GROUPBY&#45;&gt;GROUPBY_TARGET</title>
<path fill="none" stroke="black" d="M1149.08,-76C1157.23,-76 1165.37,-76 1172.99,-76"/>
<polygon fill="black" stroke="black" points="1172.97,-79.5 1182.97,-76 1172.97,-72.5 1172.97,-79.5"/>
</g>
<!-- HAVING -->
<g id="node12" class="node">
<title>HAVING</title>
<ellipse fill="none" stroke="black" cx="1335.41" cy="-76" rx="53.31" ry="18"/>
<text text-anchor="middle" x="1335.41" y="-71.33" font-family="Times,serif" font-size="14.00">HAVING</text>
</g>
<!-- GROUPBY_TARGET&#45;&gt;HAVING -->
<g id="edge16" class="edge">
<title>GROUPBY_TARGET&#45;&gt;HAVING</title>
<path fill="none" stroke="black" d="M1246.49,-76C1253.91,-76 1262.13,-76 1270.49,-76"/>
<polygon fill="black" stroke="black" points="1270.4,-79.5 1280.4,-76 1270.4,-72.5 1270.4,-79.5"/>
</g>
<!-- HAVING_TARGET -->
<g id="node13" class="node">
<title>HAVING_TARGET</title>
<ellipse fill="none" stroke="black" cx="1458.57" cy="-76" rx="33.85" ry="18"/>
<text text-anchor="middle" x="1458.57" y="-71.33" font-family="Times,serif" font-size="14.00">expr</text>
</g>
<!-- HAVING&#45;&gt;HAVING_TARGET -->
<g id="edge17" class="edge">
<title>HAVING&#45;&gt;HAVING_TARGET</title>
<path fill="none" stroke="black" d="M1389.2,-76C1397.16,-76 1405.3,-76 1413.07,-76"/>
<polygon fill="black" stroke="black" points="1412.97,-79.5 1422.97,-76 1412.97,-72.5 1412.97,-79.5"/>
</g>
<!-- HAVING_TARGET&#45;&gt;END -->
<g id="edge18" class="edge">
<title>HAVING_TARGET&#45;&gt;END</title>
<path fill="none" stroke="black" d="M1492.64,-76C1500.38,-76 1508.75,-76 1516.92,-76"/>
<polygon fill="black" stroke="black" points="1516.73,-79.5 1526.73,-76 1516.73,-72.5 1516.73,-79.5"/>
</g>
</g>
</svg>
